<?xml version="1.0" encoding="utf-8"?>
<!-- Generator: Adobe Illustrator 16.0.0, SVG Export Plug-In . SVG Version: 6.00 Build 0)  -->
<!DOCTYPE svg PUBLIC "-//W3C//DTD SVG 1.1//EN" "http://www.w3.org/Graphics/SVG/1.1/DTD/svg11.dtd">
<svg version="1.1" id="Capa_1" xmlns="http://www.w3.org/2000/svg" xmlns:xlink="http://www.w3.org/1999/xlink" x="0px" y="0px"
	 width="602px" height="602px" viewBox="0 0 602 602" enable-background="new 0 0 602 602" xml:space="preserve">
<g>
	<g>
		<g>
			<path d="M439.018,407.148c1.094-1.064,1.774-2.55,1.774-4.195v-19.285c0-10.174-8.278-18.451-18.452-18.451h-12.076
				l-8.358-34.041C397.54,313.408,381.715,301,363.42,301H238.58c-18.295,0-34.12,12.41-38.484,30.175l-8.361,34.043h-12.076
				c-10.174,0-18.451,8.277-18.451,18.451v19.285c0,1.646,0.682,3.131,1.775,4.196C155.619,414,151,423.766,151,434.594v59.179
				c0,3.235,2.624,5.858,5.859,5.858h25.781v12.892c0,13.569,11.041,24.608,24.609,24.608c13.57,0,24.61-11.039,24.61-24.608
				v-12.892h63.281v16.773c0,3.236,2.623,5.859,5.859,5.859c3.234,0,5.857-2.623,5.857-5.859v-16.773h63.281v12.892
				c0,13.569,11.039,24.608,24.609,24.608s24.609-11.039,24.609-24.608v-12.892h25.78c3.236,0,5.859-2.623,5.859-5.858v-59.179
				C450.999,423.766,446.381,414,439.018,407.148z M422.34,376.937c3.713,0,6.734,3.021,6.734,6.733v13.424h-10.98l-4.951-20.157
				H422.34L422.34,376.937z M211.477,333.972c3.074-12.513,14.219-21.253,27.104-21.253h124.84c12.885,0,24.031,8.74,27.104,21.253
				l15.504,63.122h-12.066l-14.818-60.327c-1.781-7.259-8.247-12.329-15.723-12.329H238.58c-7.475,0-13.941,5.068-15.724,12.329
				l-14.815,60.327h-12.067L211.477,333.972z M285.937,361.84c-2.288-2.287-5.998-2.287-8.287,0l-34.907,34.908
				c-0.111,0.11-0.213,0.229-0.313,0.346h-22.322l14.129-57.53c0.492-2.005,2.278-3.405,4.343-3.405h99.642l-35.701,35.7
				c-2.288,2.288-2.288,5.998,0,8.287c1.146,1.144,2.646,1.716,4.146,1.716c1.498,0,2.998-0.572,4.143-1.716l43.986-43.987h8.627
				c2.064,0,3.852,1.4,4.343,3.406l14.13,57.531H258.97l26.967-26.967C288.226,367.838,288.226,364.129,285.937,361.84z
				 M172.926,383.67c0-3.713,3.021-6.733,6.734-6.733h9.197l-4.951,20.157h-10.98V383.67z M220.141,512.521
				c0,7.107-5.783,12.891-12.891,12.891s-12.891-5.781-12.891-12.891v-12.891h25.781L220.141,512.521L220.141,512.521z
				 M407.641,512.521c0,7.107-5.782,12.891-12.891,12.891c-7.109,0-12.892-5.781-12.892-12.891v-12.891h25.781L407.641,512.521
				L407.641,512.521z M439.281,487.912H162.719v-53.318c0-14.217,11.566-25.781,25.781-25.781h224.961
				c0.011,0,0.021,0.001,0.033,0.001c0.006,0,0.013-0.001,0.019-0.001c14.21,0.008,25.77,11.568,25.77,25.781L439.281,487.912
				L439.281,487.912z"/>
		</g>
	</g>
	<g>
		<g>
			<path d="M347.875,425.621h-93.75c-3.236,0-5.859,2.623-5.859,5.858v28.126c0,3.234,2.623,5.859,5.859,5.859h93.75
				c3.235,0,5.859-2.625,5.859-5.859v-28.126C353.734,428.244,351.11,425.621,347.875,425.621z M342.016,453.746h-82.031V437.34
				h82.031V453.746z"/>
		</g>
	</g>
	<g>
		<g>
			<path d="M300.448,347.324c-1.09-1.09-2.602-1.711-4.143-1.711s-3.053,0.621-4.143,1.711c-1.09,1.096-1.717,2.602-1.717,4.148
				c0,1.541,0.627,3.047,1.717,4.143c1.09,1.09,2.602,1.711,4.143,1.711s3.053-0.621,4.143-1.711
				c1.091-1.096,1.718-2.602,1.718-4.143C302.166,349.926,301.539,348.42,300.448,347.324z"/>
		</g>
	</g>
	<g>
		<g>
			<path d="M204.906,426.098c-12.276,0-22.266,9.988-22.266,22.266s9.989,22.266,22.266,22.266c12.277,0,22.267-9.987,22.267-22.266
				C227.173,436.086,217.184,426.098,204.906,426.098z M204.906,458.91c-5.814,0-10.547-4.732-10.547-10.548
				s4.732-10.547,10.547-10.547c5.816,0,10.547,4.731,10.547,10.547S210.723,458.91,204.906,458.91z"/>
		</g>
	</g>
	<g>
		<g>
			<path d="M397.094,426.098c-12.276,0-22.267,9.988-22.267,22.266s9.989,22.266,22.267,22.266c12.276,0,22.267-9.987,22.267-22.266
				C419.36,436.086,409.37,426.098,397.094,426.098z M397.094,458.91c-5.815,0-10.548-4.732-10.548-10.548
				s4.731-10.547,10.548-10.547c5.814,0,10.547,4.731,10.547,10.547S402.909,458.91,397.094,458.91z"/>
		</g>
	</g>
	<g>
		<g>
			<path d="M179.883,548.826c-2.898-1.438-6.415-0.259-7.855,2.639l-20.414,41.066c-1.439,2.896-0.259,6.414,2.639,7.854
				c0.838,0.418,1.728,0.615,2.604,0.615c2.154,0,4.228-1.193,5.251-3.252l20.414-41.065
				C183.961,553.783,182.78,550.268,179.883,548.826z"/>
		</g>
	</g>
	<g>
		<g>
			<path d="M450.386,592.53l-20.413-41.065c-1.439-2.896-4.957-4.077-7.854-2.639c-2.898,1.441-4.079,4.957-2.64,7.855
				l20.414,41.064c1.024,2.061,3.099,3.254,5.252,3.254c0.875,0,1.767-0.199,2.604-0.615
				C450.646,598.945,451.827,595.429,450.386,592.53z"/>
		</g>
	</g>
	<g>
		<g>
			<path d="M300.999,572.287c-3.235,0-5.859,2.623-5.859,5.859v16.992c0,3.236,2.624,5.859,5.859,5.859
				c3.236,0,5.859-2.623,5.859-5.859v-16.992C306.858,574.91,304.235,572.287,300.999,572.287z"/>
		</g>
	</g>
	<g>
		<g>
			<path d="M300.999,534.104c-3.235,0-5.859,2.623-5.859,5.858v14.111c0,3.235,2.624,5.858,5.859,5.858
				c3.236,0,5.859-2.623,5.859-5.858v-14.111C306.858,536.729,304.235,534.104,300.999,534.104z"/>
		</g>
	</g>
	<g>
		<path d="M301,1c-63.777,0-115.664,51.887-115.664,115.664c0,26.453,9.158,52.299,25.795,72.811
			c0.029,0.037,0.057,0.076,0.086,0.113l85.162,109.156c1.111,1.424,2.815,2.256,4.62,2.256c0,0,0,0,0.001,0
			c1.805,0,3.508-0.832,4.619-2.254l36.616-46.912c1.99-2.551,1.537-6.233-1.014-8.225c-2.553-1.991-6.234-1.537-8.225,1.014
			l-31.996,40.993L220.623,182.59c-0.076-0.104-0.154-0.208-0.235-0.309c-15.048-18.46-23.333-41.763-23.333-65.617
			c0-57.315,46.629-103.945,103.945-103.945c57.315,0,103.945,46.63,103.945,103.945c0,24.11-8.441,47.606-23.771,66.16
			c-0.201,0.242-0.379,0.498-0.537,0.765l-22.26,28.521c-1.991,2.551-1.538,6.232,1.013,8.224c2.551,1.991,6.233,1.537,8.225-1.014
			l22.76-29.157c0.129-0.165,0.248-0.336,0.357-0.512c16.729-20.548,25.932-46.433,25.932-72.986C416.664,52.887,364.777,1,301,1z"
			/>
		<path d="M350.792,225.491c-1.541,0-3.054,0.627-4.143,1.717c-1.09,1.09-1.718,2.602-1.718,4.143s0.627,3.053,1.718,4.143
			c1.089,1.09,2.602,1.717,4.143,1.717s3.054-0.627,4.144-1.717c1.09-1.09,1.717-2.602,1.717-4.143s-0.627-3.053-1.717-4.143
			S352.333,225.491,350.792,225.491z"/>
		<path d="M269.75,46.369c-28.713,12.469-47.266,40.75-47.266,72.049c0,43.294,35.223,78.516,78.516,78.516
			c43.294,0,78.516-35.222,78.516-78.516c0-32.966-20.817-62.645-51.805-73.854c-3.043-1.101-6.402,0.475-7.502,3.517
			c-1.103,3.043,0.474,6.403,3.517,7.503c26.36,9.536,44.071,34.786,44.071,62.833c0,36.832-29.965,66.797-66.797,66.797
			c-36.831,0-66.797-29.965-66.797-66.797c0-26.629,15.785-50.691,40.215-61.3c2.968-1.289,4.33-4.74,3.041-7.709
			C276.17,46.44,272.717,45.08,269.75,46.369z"/>
		<path d="M301.121,51.621c3.235,0,5.858-2.623,5.858-5.859c0-3.236-2.623-5.859-5.858-5.859H301c-3.236,0-5.859,2.624-5.859,5.859
			c0,3.236,2.623,5.859,5.859,5.859H301.121z"/>
		<path d="M265.943,87.041l-4.421,17.996c-6.281,2.024-10.839,7.922-10.839,14.868v20.809c0,3.236,2.623,5.859,5.859,5.859h9.682
			V151c0,3.236,2.624,5.859,5.859,5.859c3.236,0,5.859-2.623,5.859-5.859v-4.429h46.111V151c0,3.236,2.625,5.859,5.859,5.859
			c3.235,0,5.858-2.623,5.858-5.859v-4.429h9.684c3.234,0,5.858-2.624,5.858-5.859v-20.809c0-6.946-4.558-12.844-10.839-14.868
			l-4.421-17.996c-1.792-7.297-8.291-12.393-15.804-12.393h-38.506C274.234,74.647,267.735,79.744,265.943,87.041z M335.66,116.003
			L335.66,116.003c0.011,0,0.021,0.001,0.032,0.001c0.007,0,0.011-0.001,0.017-0.001c2.145,0.006,3.889,1.752,3.889,3.899v14.949
			h-77.195v-14.949c0-2.15,1.749-3.899,3.898-3.899H335.66z M320.252,86.367c2.104,0,3.923,1.426,4.424,3.469l3.551,14.45h-54.453
			l3.55-14.45c0.501-2.042,2.321-3.469,4.425-3.469H320.252z"/>
	</g>
</g>
</svg>
