<?xml version="1.0" encoding="utf-8"?>
<!-- Generator: Adobe Illustrator 16.0.0, SVG Export Plug-In . SVG Version: 6.00 Build 0)  -->
<!DOCTYPE svg PUBLIC "-//W3C//DTD SVG 1.1//EN" "http://www.w3.org/Graphics/SVG/1.1/DTD/svg11.dtd">
<svg version="1.1" id="Layer_1" xmlns="http://www.w3.org/2000/svg" xmlns:xlink="http://www.w3.org/1999/xlink" x="0px" y="0px"
	 width="602px" height="602px" viewBox="0 0 602 602" enable-background="new 0 0 602 602" xml:space="preserve">
<g>
	<g>
		<polygon fill="#D8D8E4" points="445.14,595.139 394.75,493.771 207.25,493.771 156.859,595.139 		"/>
		<g>
			<path fill="#898998" d="M207.25,531.271L207.25,531.271c-10.354,0-18.75-8.395-18.75-18.75v-18.75H226v18.75
				C226,522.877,217.605,531.271,207.25,531.271z"/>
			<path fill="#898998" d="M394.75,531.271L394.75,531.271c-10.355,0-18.751-8.395-18.751-18.75v-18.75H413.5v18.75
				C413.5,522.877,405.104,531.271,394.75,531.271z"/>
		</g>
		<path fill="#FEDA9B" d="M413.5,402.952h-225l0,0c-17.474,0-31.641,14.166-31.641,31.641v59.179H445.14v-59.179
			C445.14,417.118,430.975,402.952,413.5,402.952L413.5,402.952z"/>
		<path fill="#FFC66C" d="M413.5,402.952l-17.287-70.379c-3.707-15.099-17.246-25.714-32.793-25.714H238.58
			c-15.547,0-29.086,10.615-32.793,25.715L188.5,402.952H413.5z"/>
		<path fill="#C9F3FF" d="M388.963,401.313l-15.51-63.148c-1.135-4.62-5.277-7.867-10.033-7.867H238.58
			c-4.756,0-8.898,3.248-10.033,7.867l-15.597,63.505L388.963,401.313z"/>
		<rect x="254.124" y="431.48" fill="#FF5D5D" width="93.75" height="28.125"/>
		<g>
			<circle fill="#C9F3FF" cx="204.906" cy="448.361" r="16.406"/>
			<circle fill="#C9F3FF" cx="397.092" cy="448.361" r="16.406"/>
		</g>
		<path d="M439.018,407.148c1.093-1.064,1.774-2.55,1.774-4.196v-19.284c0-10.174-8.278-18.451-18.452-18.451h-12.076l-8.359-34.041
			C397.54,313.408,381.715,301,363.42,301H238.58c-18.295,0-34.12,12.409-38.484,30.176l-8.359,34.041H179.66
			c-10.175,0-18.453,8.277-18.453,18.452v19.284c0,1.646,0.682,3.131,1.775,4.196C155.619,414,151,423.766,151,434.593v59.179
			c0,3.236,2.624,5.859,5.859,5.859h25.781v12.891c0,13.57,11.041,24.609,24.609,24.609c13.57,0,24.61-11.039,24.61-24.609v-12.891
			h63.28v16.773c0,3.236,2.623,5.859,5.859,5.859c3.237,0,5.86-2.623,5.86-5.859v-16.773h63.281v12.891
			c0,13.57,11.039,24.609,24.609,24.609s24.609-11.039,24.609-24.609v-12.891h25.781c3.236,0,5.859-2.623,5.859-5.859v-59.179
			C450.999,423.766,446.381,414,439.018,407.148z M422.34,376.936c3.713,0,6.734,3.021,6.734,6.733v13.425h-10.98l-4.951-20.158
			H422.34z M211.476,333.971c3.074-12.514,14.219-21.252,27.104-21.252h124.84c12.885,0,24.031,8.739,27.104,21.252l15.504,63.123
			h-12.066l-14.818-60.328c-1.782-7.259-8.248-12.328-15.723-12.328H238.58c-7.475,0-13.941,5.068-15.724,12.328l-14.815,60.327
			h-12.067L211.476,333.971z M285.936,361.84c-2.288-2.288-5.999-2.288-8.287,0l-34.907,34.906
			c-0.111,0.111-0.213,0.229-0.313,0.348h-22.322l14.129-57.531c0.492-2.006,2.278-3.406,4.343-3.406h99.642l-35.701,35.701
			c-2.288,2.287-2.288,5.998,0,8.287c1.145,1.144,2.645,1.716,4.145,1.716c1.498,0,2.998-0.572,4.143-1.716l43.986-43.988h8.627
			c2.064,0,3.851,1.4,4.343,3.406l14.13,57.531H258.969l26.967-26.967C288.224,367.838,288.224,364.128,285.936,361.84z
			 M172.925,383.669c0-3.712,3.021-6.733,6.734-6.733h9.197l-4.951,20.158h-10.98V383.669z M220.14,512.521
			c0,7.108-5.783,12.891-12.891,12.891s-12.891-5.782-12.891-12.891v-12.891h25.781V512.521z M407.641,512.521
			c0,7.108-5.783,12.891-12.891,12.891c-7.109,0-12.892-5.782-12.892-12.891v-12.891h25.782V512.521z M439.28,487.912H162.718
			v-53.319c0-14.216,11.566-25.781,25.781-25.781h224.961c0.011,0,0.021,0.001,0.033,0.001c0.006,0,0.013-0.001,0.019-0.001
			c14.21,0.008,25.769,11.569,25.769,25.78L439.28,487.912L439.28,487.912z"/>
		<path d="M347.875,425.62h-93.75c-3.236,0-5.859,2.624-5.859,5.859v28.126c0,3.235,2.623,5.859,5.859,5.859h93.75
			c3.236,0,5.859-2.624,5.859-5.859v-28.126C353.734,428.244,351.111,425.62,347.875,425.62z M342.016,453.746h-82.032V437.34
			h82.032V453.746z"/>
		<path d="M296.306,357.326c1.541,0,3.053-0.621,4.143-1.711c1.09-1.096,1.717-2.602,1.717-4.143c0-1.547-0.627-3.053-1.717-4.148
			c-1.09-1.09-2.602-1.711-4.143-1.711s-3.053,0.621-4.143,1.711c-1.09,1.096-1.717,2.602-1.717,4.148
			c0,1.541,0.627,3.047,1.717,4.143C293.253,356.705,294.765,357.326,296.306,357.326z"/>
		<path d="M204.906,426.097c-12.276,0-22.266,9.989-22.266,22.266c0,12.277,9.989,22.266,22.266,22.266
			c12.277,0,22.267-9.988,22.267-22.266S217.183,426.097,204.906,426.097z M204.906,458.909c-5.814,0-10.547-4.731-10.547-10.547
			s4.732-10.547,10.547-10.547c5.816,0,10.547,4.731,10.547,10.547S210.722,458.909,204.906,458.909z"/>
		<path d="M397.094,426.097c-12.277,0-22.267,9.989-22.267,22.266c0,12.277,9.989,22.266,22.267,22.266
			c12.276,0,22.266-9.988,22.266-22.266S409.37,426.097,397.094,426.097z M397.094,458.909c-5.816,0-10.548-4.731-10.548-10.547
			s4.731-10.547,10.548-10.547c5.814,0,10.547,4.731,10.547,10.547S402.909,458.909,397.094,458.909z"/>
		<path d="M179.882,548.826c-2.898-1.439-6.415-0.259-7.855,2.639l-20.414,41.066c-1.439,2.896-0.259,6.414,2.639,7.854
			c0.838,0.417,1.728,0.614,2.604,0.614c2.154,0,4.228-1.193,5.251-3.252l20.414-41.065
			C183.96,553.783,182.78,550.267,179.882,548.826z"/>
		<path d="M429.973,551.465c-1.439-2.897-4.957-4.08-7.855-2.639c-2.897,1.441-4.078,4.957-2.638,7.855l20.414,41.064
			c1.024,2.061,3.097,3.253,5.251,3.253c0.876,0,1.766-0.198,2.604-0.614c2.898-1.44,4.079-4.957,2.639-7.855L429.973,551.465z"/>
		<path d="M301,572.287c-3.236,0-5.859,2.623-5.859,5.859v16.992c0,3.236,2.623,5.859,5.859,5.859c3.237,0,5.86-2.623,5.86-5.859
			v-16.992C306.859,574.91,304.236,572.287,301,572.287z"/>
		<path d="M301,534.104c-3.236,0-5.859,2.623-5.859,5.859v14.11c0,3.236,2.623,5.859,5.859,5.859c3.237,0,5.86-2.623,5.86-5.859
			v-14.111C306.859,536.729,304.236,534.104,301,534.104z"/>
	</g>
	<g>
		<path fill="#36D28F" d="M410.805,116.664C410.805,56.021,361.644,6.859,301,6.859c-60.643,0-109.805,49.162-109.805,109.805
			c0,26.289,9.242,50.416,24.65,69.32h-0.008L301,295.141l84.756-108.584h-0.063C401.38,167.568,410.805,143.217,410.805,116.664z"
			/>
		<circle fill="#FFFFFF" cx="301" cy="118.416" r="72.656"/>
		<path fill="#FEDA9B" d="M335.697,110.145h-69.396l0,0c-5.39,0-9.759,4.369-9.759,9.759v20.809h88.915v-20.809
			C345.457,114.514,341.088,110.145,335.697,110.145L335.697,110.145z"/>
		<path fill="#C9F3FF" d="M335.697,110.145l-5.331-21.707c-1.144-4.657-5.319-7.932-10.114-7.932h-38.504
			c-4.796,0-8.971,3.274-10.115,7.932l-5.331,21.707H335.697z"/>
		<path d="M301,1c-63.777,0-115.664,51.887-115.664,115.664c0,26.453,9.158,52.299,25.795,72.811
			c0.029,0.037,0.057,0.076,0.086,0.113l85.162,109.156c1.111,1.424,2.815,2.256,4.62,2.256c0,0,0,0,0.001,0
			c1.805,0,3.508-0.832,4.62-2.254l36.617-46.912c1.99-2.551,1.537-6.233-1.014-8.225c-2.553-1.991-6.234-1.537-8.225,1.014
			l-31.997,40.993L220.623,182.59c-0.076-0.104-0.154-0.208-0.235-0.309c-15.048-18.46-23.333-41.763-23.333-65.617
			c0-57.315,46.629-103.945,103.945-103.945c57.316,0,103.946,46.63,103.946,103.945c0,24.11-8.441,47.606-23.77,66.16
			c-0.201,0.242-0.379,0.498-0.537,0.765l-22.26,28.521c-1.992,2.551-1.538,6.232,1.013,8.224c2.55,1.991,6.233,1.537,8.224-1.014
			l22.76-29.157c0.129-0.165,0.248-0.336,0.357-0.512c16.729-20.548,25.932-46.433,25.932-72.986C416.664,52.887,364.777,1,301,1z"
			/>
		<path d="M350.793,225.49c-1.541,0-3.053,0.627-4.143,1.717s-1.717,2.602-1.717,4.143s0.627,3.053,1.717,4.143
			s2.602,1.717,4.143,1.717s3.053-0.627,4.143-1.717s1.717-2.602,1.717-4.143s-0.627-3.053-1.717-4.143
			S352.334,225.49,350.793,225.49z"/>
		<path d="M269.749,46.368c-28.712,12.469-47.265,40.75-47.265,72.049c0,43.294,35.222,78.516,78.516,78.516
			c43.293,0,78.516-35.222,78.516-78.516c0-32.966-20.818-62.645-51.805-73.854c-3.043-1.101-6.402,0.475-7.503,3.517
			c-1.101,3.043,0.474,6.403,3.517,7.503c26.361,9.536,44.072,34.786,44.072,62.833c0,36.832-29.965,66.797-66.797,66.797
			c-36.831,0-66.797-29.965-66.797-66.797c0-26.629,15.785-50.691,40.215-61.3c2.968-1.289,4.33-4.74,3.041-7.709
			C276.168,46.44,272.716,45.079,269.749,46.368z"/>
		<path d="M301.122,51.62c3.236,0,5.86-2.623,5.86-5.859c0-3.236-2.624-5.859-5.86-5.859H301c-3.235,0-5.859,2.624-5.859,5.859
			c0,3.236,2.624,5.859,5.859,5.859H301.122z"/>
		<path d="M265.943,87.04l-4.421,17.996c-6.281,2.024-10.839,7.922-10.839,14.868v20.809c0,3.236,2.623,5.859,5.859,5.859h9.682V151
			c0,3.236,2.624,5.859,5.859,5.859c3.236,0,5.859-2.623,5.859-5.859v-4.429h46.112V151c0,3.236,2.625,5.859,5.859,5.859
			c3.236,0,5.859-2.623,5.859-5.859v-4.429h9.683c3.235,0,5.859-2.624,5.859-5.859v-20.809c0-6.946-4.558-12.844-10.839-14.868
			l-4.421-17.996c-1.792-7.297-8.291-12.393-15.804-12.393h-38.506C274.234,74.647,267.736,79.743,265.943,87.04z M335.66,116.004
			c0.012,0,0.022,0.001,0.034,0.001c0.005,0,0.01-0.001,0.015-0.001c2.146,0.006,3.889,1.752,3.889,3.899v14.949h-77.196v-14.949
			c0-2.15,1.749-3.899,3.898-3.899L335.66,116.004L335.66,116.004z M324.677,89.835l3.55,14.45h-54.454l3.551-14.45
			c0.501-2.042,2.32-3.469,4.424-3.469h38.505C322.355,86.366,324.176,87.792,324.677,89.835z"/>
	</g>
</g>
</svg>
