<?xml version="1.0" encoding="utf-8"?>
<!-- Generator: Adobe Illustrator 16.0.0, SVG Export Plug-In . SVG Version: 6.00 Build 0)  -->
<!DOCTYPE svg PUBLIC "-//W3C//DTD SVG 1.1//EN" "http://www.w3.org/Graphics/SVG/1.1/DTD/svg11.dtd">
<svg version="1.1" id="Capa_1" xmlns="http://www.w3.org/2000/svg" xmlns:xlink="http://www.w3.org/1999/xlink" x="0px" y="0px"
	 width="602px" height="602px" viewBox="0 0 602 602" enable-background="new 0 0 602 602" xml:space="preserve">
<g>
	<g>
		<polyline fill="#FDB62F" points="531,456.172 591.001,456.172 591.001,346.172 501.001,206.171 391,206.171 391,456.172 
			431,456.172 		"/>
		<polyline fill="#FDB62F" points="91,456.172 10.999,456.172 10.999,136.171 391,136.171 391,456.172 191,456.172 		"/>
	</g>
	<g>
		<rect x="10.999" y="406.171" fill="#F46B27" width="60" height="20.001"/>
		<rect x="211" y="406.171" fill="#F46B27" width="180" height="20.001"/>
	</g>
	<rect x="551" y="406.171" fill="#DBDBDB" width="40" height="20.001"/>
	<rect x="40.999" y="166.171" fill="#F46B27" width="350.001" height="20"/>
	<g>
		<circle fill="#126099" cx="141.001" cy="456.171" r="50"/>
		<circle fill="#126099" cx="481" cy="456.171" r="50"/>
	</g>
	<g>
		<rect x="131" y="446.171" fill="#DBDBDB" width="20" height="20.001"/>
		<rect x="471.001" y="446.171" fill="#DBDBDB" width="20" height="20.001"/>
		<rect x="40.999" y="86.171" fill="#DBDBDB" width="140.001" height="20"/>
		<rect x="1" y="86.171" fill="#DBDBDB" width="20" height="20"/>
	</g>
	<polygon fill="#87CED9" points="526.7,246.172 431,246.172 431,336.172 584.6,336.172 	"/>
	<rect x="391" y="206.171" fill="#FFA83D" width="20.001" height="250"/>
	<path fill="#6CBBC7" d="M584.6,336.172l-54.299-84.5C503.61,283.341,469.499,307.9,431,323.17v13h153.6V336.172z"/>
	<path d="M509.4,200.771c-1.84-2.861-5-4.59-8.399-4.6h-100v-60c0-5.52-4.48-10-10-10H10.999c-5.52,0-9.999,4.48-9.999,10v320
		c0,5.52,4.479,10,9.999,10h70.9c5.72,32.64,36.81,54.46,69.45,48.749c24.889-4.36,44.389-23.849,48.749-48.749h221.801
		c5.72,32.64,36.81,54.46,69.45,48.749c24.89-4.36,44.389-23.849,48.749-48.749H591c5.52,0,10-4.48,10-10v-110
		c0-1.921-0.562-3.79-1.601-5.4L509.4,200.771z M521,256.171l45.3,69.999H441v-69.999H521L521,256.171z M141.001,496.171
		c-22.091,0-40-17.909-40-39.999s17.909-40,40-40c22.089,0,39.999,17.91,39.999,40S163.09,496.171,141.001,496.171z
		 M141.001,396.171c-29.262,0.031-54.221,21.15-59.101,50.002H21v-20.001h50v-20.001H21v-260h360v20H40.999v20h340v220H211v20.001
		h170v20H200.101C195.22,417.331,170.26,396.201,141.001,396.171z M481,496.171c-22.09,0-40-17.909-40-39.999s17.91-40,40-40
		c22.091,0,40,17.91,40,40S503.091,496.171,481,496.171z M540.101,446.171c-5.72-32.641-36.81-54.46-69.45-48.75
		c-24.89,4.36-44.39,23.851-48.75,48.75H401V216.172h94.5l12.899,20H431c-5.52,0-9.999,4.48-9.999,10v90c0,5.519,4.479,10,9.999,10
		h148.101l1.899,2.9v57.099h-30v20.001h30v20L540.101,446.171L540.101,446.171z"/>
	<rect x="131" y="446.171" width="20" height="20.001"/>
	<rect x="471.001" y="446.171" width="20" height="20.001"/>
	<rect x="40.999" y="86.171" width="140.001" height="20"/>
	<rect x="1" y="86.171" width="20" height="20"/>
	<path fill="#FF5A51" d="M146.145,357.845V345.38c0-6.885,5.581-12.467,12.465-12.467h99.722c6.884,0,12.465,5.582,12.465,12.467
		v12.465c0,6.884-5.581,12.466-12.465,12.466h-99.722C151.725,370.31,146.145,364.729,146.145,357.845z"/>
	<g>
		<path fill="#FF5A51" d="M149.283,216.958c-0.643-1.801-2.35-3.007-4.263-3.011c-0.004,0-0.006,0-0.01,0
			c-1.91,0-3.617,1.197-4.267,2.994c-0.074,0.203-7.429,20.528-14.69,40.727c-14.948,41.582-14.953,41.951-14.962,43.047
			c-0.021,2.504,1.991,4.554,4.498,4.577c0.014,0,0.026,0,0.04,0c2.182,0,4.009-1.543,4.44-3.604
			c0.497-1.68,4.017-11.63,8.758-24.88h32.195l9.098,25.472c0.662,1.854,2.409,3.012,4.272,3.012c0.506,0,1.022-0.085,1.525-0.266
			c2.36-0.843,3.591-3.438,2.748-5.798L149.283,216.958z M132.079,267.733c4.083-11.377,8.678-24.128,12.905-35.832l12.796,35.832
			H132.079z"/>
		<path fill="#FF5A51" d="M190.419,213.947h-1.603c-2.505,0-4.538,2.032-4.538,4.538v82.271c0,2.505,2.033,4.536,4.538,4.536h1.603
			c25.185,0,45.673-20.488,45.673-45.672C236.092,234.436,215.604,213.947,190.419,213.947z M193.354,296.101v-72.962
			c18.813,1.5,33.663,17.289,33.663,36.481S212.167,294.601,193.354,296.101z"/>
		<path fill="#FF5A51" d="M276.938,253.479h-9.857c-7.661,0-13.894-6.232-13.894-13.893v-2.671c0-7.66,6.232-13.894,13.894-13.894
			h5.876c7.661,0,13.895,6.233,13.895,13.894c0,2.506,2.03,4.538,4.537,4.538c2.506,0,4.537-2.032,4.537-4.538
			c0-12.664-10.304-22.968-22.969-22.968h-5.876c-12.665,0-22.969,10.304-22.969,22.968v2.671c0,12.665,10.304,22.968,22.969,22.968
			h9.857c5.466,0,9.913,4.447,9.913,9.913v9.856c0,7.661-6.233,13.894-13.895,13.894h-5.876c-7.661,0-13.894-6.232-13.894-13.894
			v-2.938c0-2.505-2.03-4.537-4.538-4.537c-2.506,0-4.537,2.032-4.537,4.537v2.938c0,12.666,10.304,22.968,22.969,22.968h5.876
			c12.665,0,22.969-10.302,22.969-22.968v-9.856C295.925,261.997,287.407,253.479,276.938,253.479z"/>
	</g>
</g>
</svg>
