<?xml version="1.0" encoding="utf-8"?>
<!-- Generator: Adobe Illustrator 16.0.0, SVG Export Plug-In . SVG Version: 6.00 Build 0)  -->
<!DOCTYPE svg PUBLIC "-//W3C//DTD SVG 1.1//EN" "http://www.w3.org/Graphics/SVG/1.1/DTD/svg11.dtd">
<svg version="1.1" id="Capa_1" xmlns="http://www.w3.org/2000/svg" xmlns:xlink="http://www.w3.org/1999/xlink" x="0px" y="0px"
	 width="602px" height="602px" viewBox="0 0 602 602" enable-background="new 0 0 602 602" xml:space="preserve">
<g>
	<g>
		<g>
			<path d="M141.001,396.001C107.91,396.001,81,422.91,81,456c0,33.091,26.91,60,60.001,60c33.09,0,59.999-26.909,59.999-60
				C201,422.91,174.09,396.001,141.001,396.001z M141.001,496.001c-22.062,0-40-17.94-40-40.001s17.939-39.999,40-39.999
				C163.06,416.001,181,433.94,181,456C181,478.061,163.06,496.001,141.001,496.001z"/>
		</g>
	</g>
	<g>
		<g>
			<path d="M481,396.001c-33.09,0-59.999,26.909-59.999,59.999c0,33.091,26.909,60,59.999,60c33.091,0,60-26.909,60-60
				C541,422.91,514.091,396.001,481,396.001z M481,496.001c-22.061,0-40-17.94-40-40.001s17.94-39.999,40-39.999
				c22.062,0,40,17.939,40,39.999C521,478.061,503.062,496.001,481,496.001z"/>
		</g>
	</g>
	<g>
		<g>
			<path d="M599.41,340.591l-90-140.001c-1.84-2.86-5.01-4.59-8.41-4.59H391c-5.529,0-10,4.48-10,10v249.999c0,5.53,4.471,10,10,10
				h40v-20.001h-30V216h94.539L581,348.939v97.062h-50.001V466H591c5.53,0,10-4.47,10-10V346
				C601,344.09,600.45,342.199,599.41,340.591z"/>
		</g>
	</g>
	<g>
		<g>
			<path d="M441,326v-70h80.001v-20h-90c-5.53,0-9.999,4.479-9.999,9.999v90c0,5.53,4.469,9.999,9.999,9.999h150.001v-19.999
				L441,326L441,326z"/>
		</g>
	</g>
	<g>
		<g>
			<path d="M391,126H10.999C5.479,126,1,130.48,1,136v320c0,5.53,4.479,10,9.999,10H91v-20.001H21V146h360v299.999H191V466h200
				c5.53,0,10-4.47,10-10V136C401,130.48,396.53,126,391,126z"/>
		</g>
	</g>
	<g>
		<g>
			<rect x="10.999" y="406" width="60" height="20.001"/>
		</g>
	</g>
	<g>
		<g>
			<rect x="211" y="406" width="170" height="20.001"/>
		</g>
	</g>
	<g>
		<g>
			<rect x="551" y="406" width="40" height="20.001"/>
		</g>
	</g>
	<g>
		<g>
			<rect x="40.999" y="166" width="350.001" height="20.001"/>
		</g>
	</g>
	<g>
		<g>
			<rect x="131" y="446" width="20" height="20"/>
		</g>
	</g>
	<g>
		<g>
			<rect x="471.001" y="446" width="20" height="20"/>
		</g>
	</g>
	<g>
		<g>
			<rect x="40.999" y="86" width="140.001" height="20"/>
		</g>
	</g>
	<g>
		<g>
			<rect x="1" y="86" width="20" height="20"/>
		</g>
	</g>
	<g>
		<path d="M149.283,216.958c-0.643-1.802-2.35-3.007-4.263-3.012c-0.004,0-0.006,0-0.01,0c-1.91,0-3.617,1.197-4.267,2.994
			c-0.074,0.202-7.429,20.527-14.69,40.727c-14.948,41.582-14.953,41.951-14.962,43.047c-0.021,2.505,1.991,4.555,4.498,4.577
			c0.014,0,0.026,0,0.04,0c2.182,0,4.009-1.543,4.44-3.604c0.497-1.68,4.017-11.63,8.758-24.881h32.195l9.098,25.473
			c0.662,1.854,2.409,3.012,4.272,3.012c0.506,0,1.022-0.085,1.525-0.266c2.36-0.843,3.591-3.438,2.748-5.798L149.283,216.958z
			 M132.079,267.733c4.083-11.378,8.678-24.129,12.905-35.831l12.796,35.831H132.079z"/>
		<path d="M190.419,213.946h-1.603c-2.505,0-4.538,2.032-4.538,4.538v82.271c0,2.505,2.033,4.536,4.538,4.536h1.603
			c25.185,0,45.673-20.488,45.673-45.672S215.604,213.946,190.419,213.946z M193.354,296.101v-72.963
			c18.813,1.5,33.663,17.289,33.663,36.481S212.167,294.601,193.354,296.101z"/>
		<path d="M276.938,253.479h-9.857c-7.661,0-13.894-6.232-13.894-13.893v-2.671c0-7.66,6.232-13.894,13.894-13.894h5.876
			c7.661,0,13.895,6.233,13.895,13.894c0,2.506,2.03,4.537,4.537,4.537c2.506,0,4.537-2.031,4.537-4.537
			c0-12.664-10.304-22.969-22.969-22.969h-5.876c-12.665,0-22.969,10.305-22.969,22.969v2.671c0,12.665,10.304,22.968,22.969,22.968
			h9.857c5.466,0,9.913,4.447,9.913,9.913v9.856c0,7.661-6.233,13.894-13.895,13.894h-5.876c-7.661,0-13.894-6.232-13.894-13.894
			v-2.938c0-2.505-2.03-4.537-4.538-4.537c-2.506,0-4.537,2.032-4.537,4.537v2.938c0,12.665,10.304,22.968,22.969,22.968h5.876
			c12.665,0,22.969-10.303,22.969-22.968v-9.856C295.925,261.996,287.407,253.479,276.938,253.479z"/>
	</g>
	<g>
		<g>
			<path d="M254.853,332.859h-92.764c-8.792,0-15.943,6.169-15.943,13.751v10.002c0,7.583,7.151,13.751,15.943,13.751h92.764
				c8.791,0,15.943-6.168,15.943-13.751V346.61C270.796,339.028,263.644,332.859,254.853,332.859z M262.1,356.612
				c0,3.447-3.251,6.251-7.247,6.251h-92.764c-3.996,0-7.247-2.804-7.247-6.251V346.61c0-3.446,3.251-6.25,7.247-6.25h92.764
				c3.996,0,7.247,2.804,7.247,6.25V356.612z"/>
		</g>
	</g>
</g>
</svg>
