<svg height="402pt" viewBox="0 -17 402.77333 402" width="402pt" xmlns="http://www.w3.org/2000/svg"><path d="m109.226562 157.398438c-56.554687 0-102.398437 45.847656-102.398437 102.402343 0 56.554688 45.84375 102.398438 102.398437 102.398438 56.554688 0 102.398438-45.84375 102.398438-102.398438 0-56.554687-45.84375-102.402343-102.398438-102.402343zm0 0" fill="#fbad4a"/><path d="m109.226562 369.027344c-60.226562 0-109.226562-49-109.226562-109.226563 0-60.226562 49-109.226562 109.226562-109.226562 60.226563 0 109.226563 49 109.226563 109.226562 0 60.226563-49 109.226563-109.226563 109.226563zm0-204.800782c-52.699218 0-95.574218 42.875-95.574218 95.574219s42.875 95.574219 95.574218 95.574219c52.699219 0 95.574219-42.875 95.574219-95.574219s-42.875-95.574219-95.574219-95.574219zm0 0"/><path d="m109.226562 177.878906c-45.242187 0-81.917968 36.675782-81.917968 81.921875 0 45.242188 36.675781 81.917969 81.917968 81.917969 45.242188 0 81.921876-36.675781 81.921876-81.917969 0-45.246093-36.679688-81.921875-81.921876-81.921875zm0 0" fill="#fbad4a"/><path d="m109.226562 348.546875c-48.933593 0-88.746093-39.8125-88.746093-88.746094 0-48.933593 39.8125-88.746093 88.746093-88.746093 48.933594 0 88.746094 39.8125 88.746094 88.746093 0 48.933594-39.8125 88.746094-88.746094 88.746094zm0-163.839844c-41.40625 0-75.09375 33.6875-75.09375 75.09375s33.6875 75.09375 75.09375 75.09375 75.09375-33.6875 75.09375-75.09375-33.6875-75.09375-75.09375-75.09375zm0 0"/><path d="m87.140625 222.074219c0-.71875.480469-1.191407 1.191406-1.191407h30.199219c17.195312 0 25.308594 8.589844 25.308594 21.605469 0 9.191407-4.292969 14.4375-9.425782 17.183594v.242187c5.015626 1.914063 10.859376 8.359376 10.859376 18.265626 0 16.113281-10.144532 23.875-27.933594 23.875h-29.007813c-.710937 0-1.191406-.480469-1.191406-1.195313zm31.039063 32.585937c7.160156 0 11.578124-4.292968 11.578124-10.621094 0-6.445312-4.417968-10.746093-11.578124-10.746093h-16.242188c-.472656 0-.710938.238281-.710938.710937v19.941406c0 .472657.238282.714844.710938.714844zm-16.242188 34.980469h16.957031c7.878907 0 12.292969-4.539063 12.292969-11.34375 0-6.683594-4.414062-11.226563-12.292969-11.226563h-16.957031c-.472656 0-.710938.242188-.710938.722657v21.125c0 .484375.238282.722656.710938.722656zm0 0"/><path d="m109.226562 232.492188c-3.773437 0-6.828124-3.050782-6.828124-6.824219v-13.65625c0-3.773438 3.054687-6.824219 6.828124-6.824219 3.773438 0 6.828126 3.050781 6.828126 6.824219v13.65625c0 3.773437-3.054688 6.824219-6.828126 6.824219zm0 0"/><path d="m109.226562 314.414062c-3.773437 0-6.828124-3.054687-6.828124-6.828124v-6.824219c0-3.773438 3.054687-6.828125 6.828124-6.828125 3.773438 0 6.828126 3.054687 6.828126 6.828125v6.824219c0 3.773437-3.054688 6.828124-6.828126 6.828124zm0 0"/><path d="m177.492188 7.214844h218.453124v348.160156h-218.453124zm0 0" fill="#595959"/><path d="m395.945312 362.199219h-218.453124c-3.773438 0-6.824219-3.050781-6.824219-6.824219v-348.160156c0-3.773438 3.050781-6.828125 6.824219-6.828125h218.453124c3.773438 0 6.828126 3.054687 6.828126 6.828125v348.160156c0 3.773438-3.054688 6.824219-6.828126 6.824219zm-211.625-13.652344h204.800782v-334.507813h-204.800782zm0 0"/><path d="m204.800781 143.746094h54.613281v27.308594h-54.613281zm0 0" fill="#ddd"/><path d="m259.414062 177.878906h-54.613281c-3.773437 0-6.828125-3.050781-6.828125-6.824218v-27.308594c0-3.773438 3.054688-6.824219 6.828125-6.824219h54.613281c3.773438 0 6.824219 3.050781 6.824219 6.824219v27.308594c0 3.773437-3.050781 6.824218-6.824219 6.824218zm-47.789062-13.652344h40.960938v-13.652343h-40.960938zm0 0"/><path d="m259.414062 143.746094h54.613282v27.308594h-54.613282zm0 0" fill="#ddd"/><path d="m314.027344 177.878906h-54.613282c-3.773437 0-6.828124-3.050781-6.828124-6.824218v-27.308594c0-3.773438 3.054687-6.824219 6.828124-6.824219h54.613282c3.773437 0 6.824218 3.050781 6.824218 6.824219v27.308594c0 3.773437-3.050781 6.824218-6.824218 6.824218zm-47.789063-13.652344h40.960938v-13.652343h-40.960938zm0 0"/><path d="m314.027344 143.746094h54.613281v27.308594h-54.613281zm0 0" fill="#ddd"/><path d="m368.640625 177.878906h-54.613281c-3.773438 0-6.828125-3.050781-6.828125-6.824218v-27.308594c0-3.773438 3.054687-6.824219 6.828125-6.824219h54.613281c3.773437 0 6.824219 3.050781 6.824219 6.824219v27.308594c0 3.773437-3.050782 6.824218-6.824219 6.824218zm-47.789063-13.652344h40.960938v-13.652343h-40.960938zm0 0"/><path d="m204.800781 171.054688h54.613281v27.304687h-54.613281zm0 0" fill="#ddd"/><path d="m259.414062 205.1875h-54.613281c-3.773437 0-6.828125-3.054688-6.828125-6.828125v-27.304687c0-3.773438 3.054688-6.828126 6.828125-6.828126h54.613281c3.773438 0 6.824219 3.054688 6.824219 6.828126v27.304687c0 3.773437-3.050781 6.828125-6.824219 6.828125zm-47.789062-13.652344h40.960938v-13.65625h-40.960938zm0 0"/><path d="m259.414062 171.054688h54.613282v27.304687h-54.613282zm0 0" fill="#ddd"/><path d="m314.027344 205.1875h-54.613282c-3.773437 0-6.828124-3.054688-6.828124-6.828125v-27.304687c0-3.773438 3.054687-6.828126 6.828124-6.828126h54.613282c3.773437 0 6.824218 3.054688 6.824218 6.828126v27.304687c0 3.773437-3.050781 6.828125-6.824218 6.828125zm-47.789063-13.652344h40.960938v-13.65625h-40.960938zm0 0"/><path d="m314.027344 171.054688h54.613281v27.304687h-54.613281zm0 0" fill="#ddd"/><path d="m368.640625 205.1875h-54.613281c-3.773438 0-6.828125-3.054688-6.828125-6.828125v-27.304687c0-3.773438 3.054687-6.828126 6.828125-6.828126h54.613281c3.773437 0 6.824219 3.054688 6.824219 6.828126v27.304687c0 3.773437-3.050782 6.828125-6.824219 6.828125zm-47.789063-13.652344h40.960938v-13.65625h-40.960938zm0 0"/><path d="m204.800781 198.359375h54.613281v27.308594h-54.613281zm0 0" fill="#ddd"/><path d="m259.414062 232.492188h-54.613281c-3.773437 0-6.828125-3.050782-6.828125-6.824219v-27.308594c0-3.773437 3.054688-6.824219 6.828125-6.824219h54.613281c3.773438 0 6.824219 3.050782 6.824219 6.824219v27.308594c0 3.773437-3.050781 6.824219-6.824219 6.824219zm-47.789062-13.652344h40.960938v-13.652344h-40.960938zm0 0"/><path d="m259.414062 198.359375h54.613282v27.308594h-54.613282zm0 0" fill="#ddd"/><path d="m314.027344 232.492188h-54.613282c-3.773437 0-6.828124-3.050782-6.828124-6.824219v-27.308594c0-3.773437 3.054687-6.824219 6.828124-6.824219h54.613282c3.773437 0 6.824218 3.050782 6.824218 6.824219v27.308594c0 3.773437-3.050781 6.824219-6.824218 6.824219zm-47.789063-13.652344h40.960938v-13.652344h-40.960938zm0 0"/><path d="m314.027344 198.359375h54.613281v27.308594h-54.613281zm0 0" fill="#ddd"/><path d="m368.640625 232.492188h-54.613281c-3.773438 0-6.828125-3.050782-6.828125-6.824219v-27.308594c0-3.773437 3.054687-6.824219 6.828125-6.824219h54.613281c3.773437 0 6.824219 3.050782 6.824219 6.824219v27.308594c0 3.773437-3.050782 6.824219-6.824219 6.824219zm-47.789063-13.652344h40.960938v-13.652344h-40.960938zm0 0"/><path d="m204.800781 246.148438h54.613281v27.304687h-54.613281zm0 0" fill="#ddd"/><path d="m259.414062 280.28125h-54.613281c-3.773437 0-6.828125-3.054688-6.828125-6.828125v-27.304687c0-3.773438 3.054688-6.828126 6.828125-6.828126h54.613281c3.773438 0 6.824219 3.054688 6.824219 6.828126v27.304687c0 3.773437-3.050781 6.828125-6.824219 6.828125zm-47.789062-13.65625h40.960938v-13.652344h-40.960938zm0 0"/><path d="m259.414062 246.148438h54.613282v27.304687h-54.613282zm0 0" fill="#ddd"/><path d="m314.027344 280.28125h-54.613282c-3.773437 0-6.828124-3.054688-6.828124-6.828125v-27.304687c0-3.773438 3.054687-6.828126 6.828124-6.828126h54.613282c3.773437 0 6.824218 3.054688 6.824218 6.828126v27.304687c0 3.773437-3.050781 6.828125-6.824218 6.828125zm-47.789063-13.65625h40.960938v-13.652344h-40.960938zm0 0"/><path d="m314.027344 246.148438h54.613281v27.304687h-54.613281zm0 0" fill="#ddd"/><path d="m368.640625 280.28125h-54.613281c-3.773438 0-6.828125-3.054688-6.828125-6.828125v-27.304687c0-3.773438 3.054687-6.828126 6.828125-6.828126h54.613281c3.773437 0 6.824219 3.054688 6.824219 6.828126v27.304687c0 3.773437-3.050782 6.828125-6.824219 6.828125zm-47.789063-13.65625h40.960938v-13.652344h-40.960938zm0 0"/><path d="m348.160156 307.585938h-122.878906c-3.773438 0-6.828125-3.050782-6.828125-6.824219 0-3.773438 3.054687-6.828125 6.828125-6.828125h122.878906c3.773438 0 6.828125 3.054687 6.828125 6.828125 0 3.773437-3.054687 6.824219-6.828125 6.824219zm0 0"/><path d="m204.800781 48.171875h163.839844v68.269531h-163.839844zm0 0" fill="#2bbbe9"/><path d="m368.640625 123.265625h-163.839844c-3.773437 0-6.828125-3.050781-6.828125-6.824219v-68.269531c0-3.773437 3.054688-6.824219 6.828125-6.824219h163.839844c3.773437 0 6.824219 3.050782 6.824219 6.824219v68.269531c0 3.773438-3.050782 6.824219-6.824219 6.824219zm-157.015625-13.652344h150.1875v-54.613281h-150.1875zm0 0"/></svg>