<?xml version="1.0" encoding="iso-8859-1"?>
<!-- Generator: Adobe Illustrator 19.0.0, SVG Export Plug-In . SVG Version: 6.00 Build 0)  -->
<svg version="1.1" id="Capa_1" xmlns="http://www.w3.org/2000/svg" xmlns:xlink="http://www.w3.org/1999/xlink" x="0px" y="0px"
	 viewBox="0 0 512 512" style="enable-background:new 0 0 512 512;" xml:space="preserve">
<path style="fill:#3E575F;" d="M332,432v-45H226v105l151-15C352.25,477,332,456.75,332,432z"/>
<path style="fill:#5C6F74;" d="M180,387v45c0,24.75-20.25,45-45,45l121,15V387H180z"/>
<polygon style="fill:#CED0CE;" points="512,342 512,27 256,27 186,372 "/>
<polygon style="fill:#D2ECFD;" points="256,27 0,27 0,342 256,372 "/>
<polygon style="fill:#EAF7FF;" points="482,312 482,57 256,57 186,184.5 256,312 "/>
<rect x="30" y="57" style="fill:#FFFFFF;" width="226" height="255"/>
<polygon style="fill:#7A888A;" points="512,342 256,342 216,379.5 256,417 512,417 "/>
<rect y="342" style="fill:#98A09F;" width="256" height="75"/>
<polygon style="fill:#5C6F74;" points="256,477 226,492 256,507 437,507 437,477 "/>
<rect x="75" y="477" style="fill:#7A888A;" width="181" height="30"/>
<path style="fill:#FABE5C;" d="M256,5l-60,153.5L256,312c84.776,0,153.5-68.724,153.5-153.5S340.776,5,256,5z"/>
<g>
	<path style="fill:#FBDF65;" d="M102.5,158.5c0,84.776,68.724,153.5,153.5,153.5V5C171.224,5,102.5,73.724,102.5,158.5z"/>
	<path style="fill:#FBDF65;" d="M256,65l-60,93.5l60,93.5c51.639,0,93.5-41.861,93.5-93.5S307.639,65,256,65z"/>
</g>
<path style="fill:#FDEFB2;" d="M162.5,158.5c0,51.639,41.861,93.5,93.5,93.5V65C204.361,65,162.5,106.861,162.5,158.5z"/>
<rect x="241" y="127.5" style="fill:#FABE5C;" width="30" height="62"/>
<g>
</g>
<g>
</g>
<g>
</g>
<g>
</g>
<g>
</g>
<g>
</g>
<g>
</g>
<g>
</g>
<g>
</g>
<g>
</g>
<g>
</g>
<g>
</g>
<g>
</g>
<g>
</g>
<g>
</g>
</svg>
