<?xml version="1.0" encoding="iso-8859-1"?>
<!-- Generator: Adobe Illustrator 19.0.0, SVG Export Plug-In . SVG Version: 6.00 Build 0)  -->
<svg version="1.1" id="Capa_1" xmlns="http://www.w3.org/2000/svg" xmlns:xlink="http://www.w3.org/1999/xlink" x="0px" y="0px"
	 viewBox="0 0 512 512" style="enable-background:new 0 0 512 512;" xml:space="preserve">
<g>
	<g>
		<path d="M512,427V32H349.693C323.752,11.95,291.248,0,256,0s-67.752,11.95-93.693,32H0v395h180v25c0,16.542-13.458,30-30,30H75v30
			h362v-30h-75c-16.542,0-30-13.458-30-30v-25H512z M256,30c68.098,0,123.5,55.402,123.5,123.5S324.098,277,256,277
			s-123.5-55.402-123.5-123.5S187.902,30,256,30z M30,62h102.828c-19.043,25.569-30.328,57.241-30.328,91.5
			c0,84.64,68.86,153.5,153.5,153.5s153.5-68.86,153.5-153.5c0-34.259-11.285-65.931-30.328-91.5H482v275H30V62z M201.928,482
			c5.123-8.833,8.072-19.075,8.072-30v-25h92v25c0,10.925,2.949,21.167,8.072,30H201.928z M30,397v-30h452v30H30z"/>
	</g>
</g>
<g>
	<g>
		<path d="M256,60c-51.556,0-93.5,41.944-93.5,93.5c0,51.556,41.944,93.5,93.5,93.5c51.556,0,93.5-41.944,93.5-93.5
			C349.5,101.944,307.556,60,256,60z M256,217c-35.014,0-63.5-28.486-63.5-63.5c0-35.014,28.486-63.5,63.5-63.5
			c35.014,0,63.5,28.486,63.5,63.5S291.014,217,256,217z"/>
	</g>
</g>
<g>
	<g>
		<rect x="241" y="122.5" width="30" height="62"/>
	</g>
</g>
<g>
</g>
<g>
</g>
<g>
</g>
<g>
</g>
<g>
</g>
<g>
</g>
<g>
</g>
<g>
</g>
<g>
</g>
<g>
</g>
<g>
</g>
<g>
</g>
<g>
</g>
<g>
</g>
<g>
</g>
</svg>
