<?xml version="1.0" encoding="iso-8859-1"?>
<!-- Generator: Adobe Illustrator 19.0.0, SVG Export Plug-In . SVG Version: 6.00 Build 0)  -->
<svg version="1.1" id="Layer_1" xmlns="http://www.w3.org/2000/svg" xmlns:xlink="http://www.w3.org/1999/xlink" x="0px" y="0px"
	 viewBox="0 0 480 480" style="enable-background:new 0 0 480 480;" xml:space="preserve">
<path style="fill:#EDEDED;" d="M232,408v-32h56c-1.792,0-19.96-7.536-31.184-12.264l0,0c-1.216-0.512-2.328-0.984-3.344-1.416
	c-0.264-0.112-0.488-0.208-0.736-0.312c-0.768-0.328-1.504-0.64-2.104-0.888c-0.12-0.048-0.248-0.104-0.36-0.152
	c-0.52-0.216-0.92-0.392-1.264-0.536c-0.192-0.08-0.448-0.192-0.584-0.248C248.24,360.104,248,360,248,360l-14.008-28.024
	c0.32-0.048,0.704-0.064,1.016-0.12l-2.72-5.44l6.24-34.312l6.896-37.92C235.496,250.352,222.408,248,208,248
	c-30.928,0-56,10.744-56,24v32v8v5.848V344v8c0,13.256,25.072,24,56,24H88v32v32v32h144v-32V408z"/>
<polygon style="fill:#71CBEA;" points="328,408 328,376 312,376 288,376 232,376 232,408 232,440 232,472 328,472 328,440 "/>
<g>
	<path style="fill:#12ADDD;" d="M338.864,202.28C344.72,206.68,359.096,216,376,216c22.088,0,40-7.16,40-16s-17.912-16-40-16
		c-14.152,0-26.52,6.536-33.632,11.256l-0.968,1.928L338.864,202.28z"/>
	<path style="fill:#12ADDD;" d="M233.992,331.976L248,360c0,0,0.24,0.104,0.424,0.184c0.136,0.056,0.392,0.168,0.584,0.248
		c0.344,0.144,0.752,0.32,1.264,0.536c0.112,0.048,0.24,0.104,0.36,0.152c0.6,0.256,1.336,0.568,2.104,0.888
		c0.248,0.104,0.472,0.2,0.736,0.312c1.024,0.432,2.136,0.904,3.344,1.416l0,0C268.04,368.464,286.208,376,288,376h24h16h8
		l30.992-12.4L376,360l16-32l-16-88l-40-32l5.408-10.816l0.968-1.928L360,160h-96l24,48l-40,32l-15.712,86.416l2.72,5.44
		C234.688,331.912,234.312,331.928,233.992,331.976z"/>
</g>
<path style="fill:#EDEDED;" d="M416,248c-14.408,0-27.496,2.352-37.424,6.184l6.896,37.92L392,328l-16,32l-9.008,3.6L336,376h-8v32
	v32v32h144v-32v-32v-32h-56c30.928,0,56-10.744,56-24v-8v-24v-8v-8v-32C472,258.744,446.928,248,416,248z"/>
<circle style="fill:#D84444;" cx="112" cy="112" r="104"/>
<g>
	<path style="fill:#2D2D2D;" d="M416,240c-11.008,0-21.76,1.328-31.176,3.8l-0.952-5.232c-0.344-1.896-1.368-3.608-2.872-4.824
		l-12.968-10.368c2.584,0.368,5.232,0.624,7.968,0.624c23.12,0,48-7.504,48-24s-24.88-24-48-24c-5.744,0-11.192,0.928-16.232,2.36
		l7.392-14.784c1.24-2.48,1.104-5.424-0.352-7.784S362.776,152,360,152h-96c-2.776,0-5.344,1.44-6.808,3.8s-1.592,5.304-0.352,7.784
		l21.112,42.216L243,233.752c-1.504,1.208-2.528,2.92-2.872,4.824l-0.952,5.232C229.76,241.328,219.008,240,208,240
		c-31.808,0-64,10.992-64,32v80c0,6.232,2.88,11.56,7.696,16H88c-4.416,0-8,3.576-8,8v32v32v32c0,4.424,3.584,8,8,8h144h96h144
		c4.416,0,8-3.576,8-8v-32v-32v-32c0-4.336-3.456-7.808-7.752-7.952C477.096,363.6,480,358.256,480,352v-80
		C480,250.992,447.808,240,416,240z M464,293.872v25.176c-2.68,3.176-18.048,8.952-44,8.952c-7.032,0-13.848-0.456-20.112-1.32
		c-0.008-0.04-0.008-0.072-0.016-0.112l-3.752-20.648l0,0l-0.632-3.496c0.512,0.08,1.056,0.112,1.568,0.192
		c1.728,0.248,3.48,0.448,5.256,0.632c1.064,0.104,2.112,0.224,3.184,0.304c2.176,0.168,4.376,0.264,6.592,0.328
		c0.664,0.016,1.328,0.056,1.992,0.064c0.64,0.008,1.272,0.056,1.92,0.056c11.512,0,23.048-1.464,33.12-4.296
		c0.08-0.024,0.152-0.04,0.232-0.064c2.48-0.704,4.856-1.504,7.128-2.376c0.44-0.168,0.864-0.344,1.288-0.52
		c2.024-0.824,3.968-1.704,5.776-2.664C463.688,294.008,463.856,293.952,464,293.872z M416,368c-12.064,0-23.672-1.816-32.6-4.904
		l10.584-21.168C402,343.272,410.848,344,420,344c15.344,0,32.096-1.944,44-6.688V352C464,357.64,445.776,368,416,368z M464,432H336
		v-16h128V432z M416,256c29.776,0,48,10.36,48,16s-18.224,16-48,16c-3.712,0-7.344-0.224-10.92-0.552
		c-0.704-0.064-1.408-0.12-2.104-0.2c-3.416-0.376-6.728-0.888-9.904-1.56c-0.224-0.048-0.44-0.112-0.664-0.16l-4.72-25.952
		C396.024,257.256,405.832,256,416,256z M407.8,200c-2.064,2.616-13.024,8-31.8,8c-10.328,0-19.784-4.224-26.152-8
		c6.736-4,16.008-8,26.152-8C394.776,192,405.736,197.384,407.8,200z M276.944,168h70.112l-11.84,23.68l-3.512,7.024L331.056,200
		h-38.112L276.944,168z M290.808,216h42.384l35.472,28.376l3.144,17.28l5.792,31.888l4.192,23.04l1.856,10.224l-1.28,2.56
		L370.2,353.704l-2.056,0.824l-4.12,1.648c-0.008,0-0.016,0.008-0.016,0.008L334.464,368H328h-39.128
		c-3.392-1.048-15.904-6.128-28.912-11.616c-0.008-0.008-0.016-0.016-0.032-0.016l-6.088-2.576l-10.872-21.736
		c0.032-1.288-0.216-2.584-0.808-3.768l-1.528-3.056l1.568-8.64l4.192-23.04l5.792-31.888l3.144-17.28L290.808,216z M96,416h128v16
		H96V416z M160,293.872c0.144,0.08,0.312,0.136,0.456,0.208c1.8,0.96,3.736,1.832,5.752,2.656c0.44,0.176,0.872,0.36,1.328,0.536
		c2.256,0.864,4.616,1.656,7.08,2.36c0.112,0.032,0.232,0.064,0.352,0.096C185.008,302.544,196.52,304,208,304
		c0.624,0,1.232-0.048,1.856-0.056c0.744-0.008,1.48-0.048,2.232-0.072c2.144-0.064,4.272-0.152,6.376-0.32
		c1.112-0.08,2.2-0.2,3.296-0.312c1.752-0.176,3.48-0.376,5.184-0.624c0.52-0.072,1.064-0.112,1.576-0.192l-0.04,0.216l-0.376-0.072
		l-3.976,21.84c-0.04,0.24-0.08,0.488-0.096,0.736c-5.16,0.464-10.568,0.696-16.032,0.696c-28.168,0-44.944-5.872-48-9.128V293.872z
		 M208,256c10.168,0,19.976,1.256,28.312,3.584l-4.72,25.952c-0.224,0.048-0.44,0.112-0.664,0.16
		c-3.168,0.664-6.488,1.184-9.904,1.56c-0.696,0.08-1.4,0.136-2.104,0.2c-3.576,0.32-7.208,0.544-10.92,0.544
		c-29.776,0-48-10.36-48-16S178.224,256,208,256z M160,352v-17.288c17.52,6.8,43.696,7.136,48,7.136
		c7.36,0,14.504-0.528,21.328-1.296l11.272,22.544c-8.936,3.08-20.552,4.904-32.6,4.904C178.224,368,160,357.64,160,352z M96,384
		h128v16H96V384z M96,448h128v16H96V448z M240,440v-32v-24h48h32v24v32v24h-80V440z M464,464H336v-16h128V464z M464,384v16H336v-16
		H464z"/>
	<path style="fill:#2D2D2D;" d="M312,312c-4.408,0-8-3.584-8-8h-16c0,10.416,6.712,19.216,16,22.528V336h16v-9.472
		c9.288-3.312,16-12.112,16-22.528c0-2.512-1.184-4.888-3.2-6.4l-28.032-21.024c1.288-2.704,4.048-4.576,7.232-4.576
		c4.408,0,8,3.584,8,8h16c0-13.232-10.768-24-24-24s-24,10.768-24,24c0,2.512,1.184,4.888,3.2,6.4l28.032,21.024
		C317.944,310.128,315.184,312,312,312z"/>
	<polygon style="fill:#2D2D2D;" points="320,248 304,248 304,256 312,256 320,256 	"/>
	<path style="fill:#2D2D2D;" d="M112,224c61.76,0,112-50.24,112-112S173.76,0,112,0S0,50.24,0,112S50.24,224,112,224z M112,16
		c52.936,0,96,43.064,96,96s-43.064,96-96,96s-96-43.064-96-96S59.064,16,112,16z"/>
	<polygon style="fill:#2D2D2D;" points="77.656,157.656 112,123.312 146.344,157.656 157.656,146.344 123.312,112 157.656,77.656 
		146.344,66.344 112,100.688 77.656,66.344 66.344,77.656 100.688,112 66.344,146.344 	"/>
</g>
<g>
</g>
<g>
</g>
<g>
</g>
<g>
</g>
<g>
</g>
<g>
</g>
<g>
</g>
<g>
</g>
<g>
</g>
<g>
</g>
<g>
</g>
<g>
</g>
<g>
</g>
<g>
</g>
<g>
</g>
</svg>
