<?xml version="1.0" encoding="utf-8"?>
<!-- Generator: Adobe Illustrator 16.0.0, SVG Export Plug-In . SVG Version: 6.00 Build 0)  -->
<!DOCTYPE svg PUBLIC "-//W3C//DTD SVG 1.1//EN" "http://www.w3.org/Graphics/SVG/1.1/DTD/svg11.dtd">
<svg version="1.1" id="Layer_1" xmlns="http://www.w3.org/2000/svg" xmlns:xlink="http://www.w3.org/1999/xlink" x="0px" y="0px"
	 width="602px" height="602px" viewBox="0 0 602 602" enable-background="new 0 0 602 602" xml:space="preserve">
<g>
	<path d="M301,13.957c38.757,0,76.346,7.587,111.727,22.552c34.18,14.457,64.878,35.155,91.243,61.521
		c26.366,26.366,47.065,57.063,61.521,91.244c14.964,35.379,22.552,72.97,22.552,111.726c0,38.757-7.588,76.346-22.552,111.727
		c-14.456,34.18-35.155,64.879-61.521,91.243c-26.365,26.366-57.063,47.065-91.243,61.521
		c-35.381,14.964-72.97,22.552-111.727,22.552c-38.756,0-76.346-7.588-111.726-22.552c-34.179-14.456-64.878-35.155-91.244-61.521
		c-26.366-26.364-47.065-57.063-61.521-91.243C21.545,377.346,13.957,339.757,13.957,301c0-38.756,7.588-76.347,22.552-111.726
		c14.457-34.18,35.155-64.878,61.521-91.244c26.365-26.366,57.064-47.064,91.244-61.521C224.654,21.544,262.244,13.957,301,13.957
		 M301,1C135.315,1,1,135.314,1,301c0,165.685,134.315,300,300,300c165.685,0,300-134.315,300-300C601,135.314,466.685,1,301,1
		L301,1z"/>
	<g>
		<path d="M376.936,154.256H225.076V79.729h151.852l0.008,6.478V154.256z M238.033,141.299h125.945V92.686H238.033V141.299z"/>
	</g>
	<g>
		<path d="M432.901,487.427H169.096c-26.906,0-48.797-21.891-48.797-48.797v-17.835c0-18.7,15.214-33.913,33.913-33.913h3.285
			c6.643,0,13.23,2.025,19.051,5.858c10.739,7.072,25.102,10.967,40.444,10.967c11.043,0,21.746-2.058,30.951-5.949
			c16.884-7.141,34.557-10.797,52.527-10.867l0.042-0.002c0.163-0.005,0.324-0.008,0.486-0.008c18.14,0,35.99,3.658,53.057,10.876
			c9.207,3.893,19.91,5.949,30.951,5.949c15.342,0,29.704-3.896,40.443-10.967c5.818-3.833,12.407-5.858,19.052-5.858h3.285
			c9.059,0,17.575,3.527,23.979,9.935c6.405,6.404,9.934,14.922,9.933,23.979v17.834
			C481.698,465.535,459.809,487.427,432.901,487.427z M154.212,399.839c-11.555,0-20.957,9.401-20.957,20.956v17.835
			c0,19.763,16.078,35.84,35.84,35.84h263.807c19.762,0,35.84-16.077,35.84-35.84v-17.835c0-5.599-2.18-10.861-6.138-14.819
			c-3.957-3.958-9.22-6.138-14.816-6.138h-3.285c-4.104,0-8.228,1.287-11.925,3.723c-12.831,8.449-29.727,13.104-47.57,13.104
			c-12.759,0-25.207-2.411-35.997-6.973c-15.461-6.538-31.614-9.854-48.011-9.854l-0.465,0.007
			c-16.258,0.065-32.251,3.379-47.544,9.847c-10.788,4.563-23.236,6.974-35.997,6.974c-17.846,0-34.74-4.653-47.57-13.104
			c-3.698-2.436-7.822-3.723-11.925-3.723H154.212z"/>
	</g>
	<path d="M238.183,407.72c-0.177-3.134-0.199-6.312-0.021-9.503l8.988-162.391c1.353-24.447,13.355-44.337,26.754-44.337h54.192
		c1.815,0,3.641,0.362,5.422,1.078c11.403,4.577,20.177,22.366,21.331,43.259l8.989,162.391c0.176,3.19,0.155,6.368-0.021,9.502
		c4.105,0.984,8.41,1.69,12.866,2.086c0.282-4.041,0.321-8.157,0.092-12.304l-8.988-162.391
		c-1.47-26.561-13.027-47.98-29.442-54.568c-3.322-1.334-6.771-2.01-10.248-2.01h-54.193c-20.843,0-37.906,24.323-39.692,56.578
		l-8.988,162.392c-0.229,4.146-0.19,8.264,0.092,12.305C229.772,409.41,234.077,408.704,238.183,407.72z"/>
	<path d="M172.985,398.15c1.071,0.705,2.191,1.376,3.335,2.027c-0.282-3.302-0.294-6.641,0.014-9.98l17.004-184.498
		c2.704-29.327,26.951-51.442,56.402-51.442h102.52c27.195,0,50.599,19.369,55.646,46.055c0.336,1.774,0.59,3.587,0.756,5.387
		l17.003,184.498c0.308,3.33,0.318,6.664,0.046,9.962c1.133-0.646,2.243-1.313,3.303-2.01c3.017-1.985,6.347-3.408,9.831-4.165
		c-0.034-1.658-0.124-3.318-0.276-4.978l-17.005-184.496c-0.202-2.207-0.515-4.43-0.926-6.607
		c-6.205-32.798-34.962-56.604-68.378-56.604H249.74c-17.393,0-34.049,6.455-46.9,18.176s-20.808,27.714-22.404,45.034
		l-17.004,184.498c-0.153,1.662-0.224,3.322-0.256,4.982C166.654,394.748,169.976,396.169,172.985,398.15z"/>
</g>
</svg>
