<?xml version="1.0" encoding="iso-8859-1"?>
<!-- Generator: Adobe Illustrator 19.0.0, SVG Export Plug-In . SVG Version: 6.00 Build 0)  -->
<svg version="1.1" id="Capa_1" xmlns="http://www.w3.org/2000/svg" xmlns:xlink="http://www.w3.org/1999/xlink" x="0px" y="0px"
	 viewBox="0 0 512 512" style="enable-background:new 0 0 512 512;" xml:space="preserve">
<circle style="fill:#FFDA00;" cx="256" cy="256" r="256"/>
<path style="fill:#FFB600;" d="M511.669,269.113L315.264,72.708l-118.528,52.543l84.62,84.619L116.199,397.131l113.537,113.537
	C238.371,511.548,247.133,512,256,512C392.987,512,504.843,404.404,511.669,269.113z"/>
<path style="fill:#495959;" d="M314.252,390.412H197.748c-31.699,0-56.543-27.239-53.634-58.805l14.51-157.438
	c2.554-27.714,25.803-48.918,53.634-48.918h87.484c27.832,0,51.08,21.204,53.634,48.918l14.51,157.438
	C370.795,363.172,345.951,390.412,314.252,390.412z"/>
<path style="fill:#3F4A4A;" d="M367.886,331.607l-14.51-157.438c-2.554-27.714-25.803-48.918-53.634-48.918h-44.17v265.16h58.681
	C345.951,390.412,370.795,363.172,367.886,331.607z"/>
<path style="fill:#55696E;" d="M286.791,390.412h-61.583c-16.756,0-29.888-23.976-28.35-51.759l7.67-138.574
	c1.35-24.394,13.639-43.057,28.35-43.057h46.243c14.711,0,27,18.663,28.35,43.057l7.67,138.574
	C316.679,366.436,303.547,390.412,286.791,390.412z"/>
<path style="fill:#495959;" d="M315.141,338.653l-7.67-138.574c-1.35-24.394-13.639-43.057-28.35-43.057h-23.55v233.39h31.22
	C303.547,390.412,316.679,366.436,315.141,338.653z"/>
<rect x="196.74" y="72.71" style="fill:#3F4A4A;" width="118.53" height="52.54"/>
<rect x="255.57" y="72.71" style="fill:#323C3C;" width="59.693" height="52.54"/>
<path style="fill:#3F4A4A;" d="M378.456,334.814c-4.717,0-9.277,1.494-13.217,4.088c-9.639,6.348-22.903,10.27-37.552,10.27
	c-10.514,0-20.31-2.024-28.565-5.514c-13.655-5.774-28.297-8.843-43.122-8.843l0,0c-14.826,0-29.467,3.069-43.122,8.843
	c-8.255,3.491-18.05,5.514-28.565,5.514c-14.648,0-27.913-3.922-37.552-10.27c-3.939-2.594-8.5-4.088-13.217-4.088h-2.803
	c-12.929,0-23.411,10.481-23.411,23.411v15.219c0,19.944,16.168,36.112,36.112,36.112h225.114c19.944,0,36.112-16.168,36.112-36.112
	v-15.219c0-12.929-10.481-23.411-23.411-23.411H378.456z"/>
<path style="fill:#323C3C;" d="M381.258,334.813h-2.803c-4.717,0-9.278,1.494-13.217,4.088c-9.639,6.348-22.903,10.27-37.552,10.27
	c-10.514,0-20.31-2.024-28.565-5.514c-13.655-5.774-28.297-8.844-43.122-8.844l0,0c-0.143,0-0.286,0.005-0.429,0.006v74.736h112.986
	c19.944,0,36.112-16.168,36.112-36.112v-15.219C404.669,345.295,394.188,334.813,381.258,334.813z"/>
<g>
</g>
<g>
</g>
<g>
</g>
<g>
</g>
<g>
</g>
<g>
</g>
<g>
</g>
<g>
</g>
<g>
</g>
<g>
</g>
<g>
</g>
<g>
</g>
<g>
</g>
<g>
</g>
<g>
</g>
</svg>
